<?xml version="1.0" encoding="utf-8"?>
<!-- Generator: Adobe Illustrator 26.0.3, SVG Export Plug-In . SVG Version: 6.00 Build 0)  -->
<svg version="1.1" id="Layer_1" xmlns="http://www.w3.org/2000/svg" xmlns:xlink="http://www.w3.org/1999/xlink" x="0px" y="0px"
	 viewBox="0 0 1024 280" style="enable-background:new 0 0 1024 280;" xml:space="preserve">
<style type="text/css">
	.st0{fill:#FFFFFF;}
</style>
<g>
	<path class="st0" d="M152.73,28.36c-13.36-8.22-29.83-12.33-49.44-12.33H17v190.49h85.16c17.93,0,33.71-3.92,47.34-11.77
		c13.63-7.84,24.32-18.95,32.08-33.34c7.75-14.38,11.62-31.47,11.62-51.27c0-18.11-3.41-34.22-10.22-48.32
		C176.16,47.74,166.08,36.58,152.73,28.36z M134.94,141.54c-3.74,8.4-8.73,14.66-14.99,18.77s-13.31,6.16-21.15,6.16H67.99V56.1
		h32.78c8.59,0,15.83,2.34,21.71,7c5.88,4.67,10.37,11.06,13.45,19.19c3.08,8.12,4.62,17.42,4.62,27.87
		C140.54,122.68,138.67,133.14,134.94,141.54z"/>
	<path class="st0" d="M316.61,75.57c-9.62-6.44-21.71-9.66-36.28-9.66c-13.63,0-26.01,2.9-37.12,8.68
		c-11.11,5.79-19.89,14.1-26.33,24.93s-9.66,23.91-9.66,39.22s3.5,28.25,10.51,38.8c7,10.55,16.67,18.54,28.99,23.95
		c12.33,5.41,26.24,8.12,41.74,8.12c7.66,0,15.13-0.66,22.41-1.96c7.28-1.31,13.91-3.08,19.89-5.32c5.97-2.24,10.74-4.67,14.29-7.28
		l-14.29-34.46c-4.11,2.06-9.29,4.11-15.55,6.16c-6.26,2.06-13.49,3.08-21.71,3.08c-5.79,0-10.74-0.74-14.85-2.24
		c-4.11-1.49-7.47-3.64-10.08-6.44c-2.62-2.8-4.58-6.07-5.88-9.8h82.64V136.5c0-12.7-2.38-24.42-7.14-35.16
		C333.42,90.6,326.23,82.01,316.61,75.57z M261.28,126.13c0-3.55,0.79-6.77,2.38-9.66c1.58-2.89,3.78-5.23,6.58-7
		s5.69-2.66,8.68-2.66c4.29,0,7.7,1.08,10.22,3.22c2.52,2.15,4.39,4.72,5.6,7.7c1.21,2.99,1.82,5.79,1.82,8.4H261.28z"/>
	<polygon class="st0" points="430.76,147.42 403.59,65.62 356.53,79.07 405.83,206.53 454.01,206.53 507.52,70.67 456.82,70.67 	"/>
	<path class="st0" d="M670.14,25.28c-14.66-8.78-32.36-13.17-53.09-13.17c-19.05,0-36,4.25-50.85,12.75s-26.47,20.27-34.88,35.3
		c-8.4,15.04-12.61,32.36-12.61,51.97c0,18.12,3.96,34.65,11.91,49.59c7.94,14.94,19.28,26.8,34.04,35.58
		c14.75,8.78,32.22,13.17,52.39,13.17c19.42,0,36.56-4.24,51.41-12.75c14.85-8.5,26.42-20.31,34.74-35.44
		c8.31-15.13,12.47-32.5,12.47-52.11c0-18.3-3.92-34.83-11.77-49.59C696.05,45.83,684.8,34.06,670.14,25.28z M657.11,142.1
		c-4.11,8.59-9.66,15.04-16.67,19.33c-7,4.3-14.89,6.44-23.67,6.44c-9.52,0-17.7-2.42-24.51-7.28
		c-6.82-4.85-12.05-11.53-15.69-20.03s-5.46-18.07-5.46-28.71c0-11.58,2.1-21.61,6.3-30.12c4.2-8.5,9.85-15.13,16.95-19.89
		c7.1-4.76,14.85-7.14,23.25-7.14c9.52,0,17.69,2.43,24.51,7.28c6.81,4.86,12.05,11.44,15.69,19.75s5.46,17.79,5.46,28.43
		C663.28,122.87,661.22,133.51,657.11,142.1z"/>
	<path class="st0" d="M846.76,73.47c-10.46-5.04-22.41-7.56-35.86-7.56c-6.91,0-13.63,1.22-20.17,3.64
		c-6.47,2.4-12.34,5.5-17.62,9.27l-7.87-7.87h-25.49v196.94l50.99-2.8v-58.43c0.42,0.14,0.84,0.31,1.26,0.44
		c5.51,1.68,11.07,2.52,16.67,2.52c14.38,0,26.94-2.71,37.68-8.12c10.74-5.41,19.14-13.54,25.21-24.37s9.1-24.28,9.1-40.34
		c0-16.25-3.04-29.6-9.1-40.06C865.48,86.26,857.22,78.51,846.76,73.47z M824.91,154.99c-2.06,5.04-4.76,8.87-8.12,11.49
		c-3.36,2.62-7.19,3.92-11.49,3.92c-4.68,0-9.54-1.29-14.57-3.81v-57.31c4.18-2.72,8.29-4.15,12.33-4.15
		c5.41,0,9.94,1.22,13.59,3.64c3.64,2.43,6.44,6.02,8.4,10.79c1.96,4.76,2.94,10.6,2.94,17.51
		C827.99,143.97,826.96,149.94,824.91,154.99z"/>
	<path class="st0" d="M999.72,143.08c-4.86-5.69-10.93-10.46-18.21-14.29c-7.28-3.83-14.66-7.05-22.13-9.66
		c-4.11-1.49-7.52-2.99-10.22-4.48c-2.71-1.49-4.06-2.8-4.06-3.92c0-1.86,1.3-3.36,3.92-4.48c2.61-1.12,5.97-1.68,10.09-1.68
		c4.85,0,10.27,0.75,16.25,2.24c5.97,1.5,11.67,3.46,17.09,5.88l14.29-32.22c-5.23-4.11-11.11-7.19-17.65-9.24
		c-6.54-2.05-12.84-3.45-18.91-4.2c-6.07-0.74-10.97-1.12-14.71-1.12c-18.87,0-33.62,4.02-44.26,12.05
		c-10.65,8.03-15.97,19.14-15.97,33.34c0,8.22,2.47,15.22,7.42,21.01s11.16,10.6,18.63,14.43c7.47,3.83,14.94,7.05,22.41,9.66
		c2.61,0.75,4.95,1.64,7,2.66c2.05,1.03,3.64,2.06,4.76,3.08c1.12,1.03,1.68,1.92,1.68,2.66c0,1.12-0.52,2.15-1.54,3.08
		c-1.03,0.94-2.43,1.68-4.2,2.24c-1.78,0.56-3.78,0.84-6.02,0.84c-3.18,0-7.1-0.46-11.77-1.4c-4.67-0.93-9.39-2.1-14.15-3.5
		s-9.01-2.94-12.75-4.62l-14.29,32.22c5.23,4.11,11.67,7.33,19.33,9.66c7.66,2.34,15.08,3.97,22.27,4.9s12.65,1.4,16.39,1.4
		c18.86,0,33.01-4.01,42.44-12.05c9.43-8.03,14.15-19.14,14.15-33.34C1007,155.83,1004.57,148.78,999.72,143.08z"/>
</g>
</svg>
